<svg width="20" height="20" viewBox="0 0 20 20" fill="none" xmlns="http://www.w3.org/2000/svg">
<path d="M19.6 10.2271C19.6 9.518 19.5363 8.83619 19.4182 8.18164H10V12.0498H15.3818C15.15 13.2998 14.4454 14.3589 13.3863 15.0681V17.5771H16.6182C18.5091 15.8362 19.6 13.2725 19.6 10.2271Z" fill="#4285F4"/>
<path d="M9.99887 20.0004C12.6989 20.0004 14.9625 19.1049 16.617 17.5776L13.3852 15.0685C12.4898 15.6685 11.3444 16.0231 9.99887 16.0231C7.39432 16.0231 5.18978 14.2639 4.40341 11.9004H1.0625V14.4913C2.70795 17.7594 6.08978 20.0004 9.99887 20.0004Z" fill="#34A853"/>
<path d="M9.99887 3.97728C11.467 3.97728 12.7852 4.48182 13.8216 5.47272L16.6898 2.60454C14.9579 0.990909 12.6944 0 9.99887 0C6.08978 0 2.70795 2.24091 1.0625 5.50909L4.40341 8.1C5.18978 5.73637 7.39432 3.97728 9.99887 3.97728Z" fill="#EA4335"/>
</svg>
