<svg width="64" height="64" viewBox="0 0 64 64" fill="none" xmlns="http://www.w3.org/2000/svg">
<path d="M5.33398 8H21.334C24.163 8 26.8761 9.12381 28.8765 11.1242C30.8768 13.1246 32.0007 15.8377 32.0007 18.6667V56C32.0007 53.8783 31.1578 51.8434 29.6575 50.3431C28.1572 48.8429 26.1224 48 24.0007 48H5.33398V8Z" stroke="#374151" stroke-width="4" stroke-linecap="round" stroke-linejoin="round"/>
<path d="M58.6667 8H42.6667C39.8377 8 37.1246 9.12381 35.1242 11.1242C33.1238 13.1246 32 15.8377 32 18.6667V56C32 53.8783 32.8429 51.8434 34.3431 50.3431C35.8434 48.8429 37.8783 48 40 48H58.6667V8Z" stroke="#374151" stroke-width="4" stroke-linecap="round" stroke-linejoin="round"/>
</svg>
