<svg width="18" height="18" viewBox="0 0 18 18" fill="none" xmlns="http://www.w3.org/2000/svg">
<path d="M8.26259 2.11034C8.29473 1.9383 8.38602 1.7829 8.52067 1.67108C8.65531 1.55926 8.82482 1.49805 8.99984 1.49805C9.17487 1.49805 9.34438 1.55926 9.47902 1.67108C9.61366 1.7829 9.70496 1.9383 9.73709 2.11034L10.5253 6.27884C10.5813 6.5752 10.7253 6.84781 10.9386 7.06107C11.1519 7.27434 11.4245 7.41836 11.7208 7.47434L15.8893 8.26259C16.0614 8.29473 16.2168 8.38602 16.3286 8.52067C16.4404 8.65531 16.5016 8.82482 16.5016 8.99984C16.5016 9.17487 16.4404 9.34438 16.3286 9.47902C16.2168 9.61366 16.0614 9.70496 15.8893 9.73709L11.7208 10.5253C11.4245 10.5813 11.1519 10.7253 10.9386 10.9386C10.7253 11.1519 10.5813 11.4245 10.5253 11.7208L9.73709 15.8893C9.70496 16.0614 9.61366 16.2168 9.47902 16.3286C9.34438 16.4404 9.17487 16.5016 8.99984 16.5016C8.82482 16.5016 8.65531 16.4404 8.52067 16.3286C8.38602 16.2168 8.29473 16.0614 8.26259 15.8893L7.47434 11.7208C7.41836 11.4245 7.27434 11.1519 7.06107 10.9386C6.84781 10.7253 6.5752 10.5813 6.27884 10.5253L2.11034 9.73709C1.9383 9.70496 1.7829 9.61366 1.67108 9.47902C1.55926 9.34438 1.49805 9.17487 1.49805 8.99984C1.49805 8.82482 1.55926 8.65531 1.67108 8.52067C1.7829 8.38602 1.9383 8.29473 2.11034 8.26259L6.27884 7.47434C6.5752 7.41836 6.84781 7.27434 7.06107 7.06107C7.27434 6.84781 7.41836 6.5752 7.47434 6.27884L8.26259 2.11034Z" stroke="white" stroke-width="1.5" stroke-linecap="round" stroke-linejoin="round"/>
<path d="M15 1.5V4.5" stroke="white" stroke-width="1.5" stroke-linecap="round" stroke-linejoin="round"/>
<path d="M16.5 3H13.5" stroke="white" stroke-width="1.5" stroke-linecap="round" stroke-linejoin="round"/>
<path d="M3 16.5C3.82843 16.5 4.5 15.8284 4.5 15C4.5 14.1716 3.82843 13.5 3 13.5C2.17157 13.5 1.5 14.1716 1.5 15C1.5 15.8284 2.17157 16.5 3 16.5Z" stroke="white" stroke-width="1.5" stroke-linecap="round" stroke-linejoin="round"/>
</svg>
