<svg width="18" height="18" viewBox="0 0 18 18" fill="none" xmlns="http://www.w3.org/2000/svg">
<path d="M9 2.25H3.75C3.35218 2.25 2.97064 2.40804 2.68934 2.68934C2.40804 2.97064 2.25 3.35218 2.25 3.75V14.25C2.25 14.6478 2.40804 15.0294 2.68934 15.3107C2.97064 15.592 3.35218 15.75 3.75 15.75H14.25C14.6478 15.75 15.0294 15.592 15.3107 15.3107C15.592 15.0294 15.75 14.6478 15.75 14.25V9" stroke="white" stroke-width="1.5" stroke-linecap="round" stroke-linejoin="round"/>
<path d="M13.7803 1.96794C14.0787 1.66957 14.4834 1.50195 14.9053 1.50195C15.3273 1.50195 15.732 1.66957 16.0303 1.96794C16.3287 2.26631 16.4963 2.67099 16.4963 3.09294C16.4963 3.5149 16.3287 3.91957 16.0303 4.21794L9.27059 10.9784C9.09251 11.1564 8.8725 11.2866 8.63084 11.3572L6.47609 11.9872C6.41156 12.006 6.34315 12.0071 6.27803 11.9905C6.2129 11.9738 6.15346 11.9399 6.10593 11.8924C6.05839 11.8448 6.02451 11.7854 6.00783 11.7203C5.99114 11.6551 5.99227 11.5867 6.01109 11.5222L6.64109 9.36744C6.71199 9.12598 6.84249 8.90624 7.02059 8.72844L13.7803 1.96794Z" stroke="white" stroke-width="1.5" stroke-linecap="round" stroke-linejoin="round"/>
</svg>
